<svg width="20" height="20" viewBox="0 0 20 20" fill="none" xmlns="http://www.w3.org/2000/svg">
<path fill-rule="evenodd" clip-rule="evenodd" d="M16.8568 17.2791C18.7919 15.4555 20 12.8688 20 10C20 4.47715 15.5228 0 10 0C4.47715 0 0 4.47715 0 10C0 12.8688 1.20805 15.4555 3.14321 17.2791C4.93345 18.9661 7.34599 20 10 20C12.654 20 15.0665 18.9661 16.8568 17.2791ZM3.995 15.9613C5.40473 14.2029 7.57088 13.0769 10 13.0769C12.4291 13.0769 14.5953 14.2029 16.005 15.9613C14.4721 17.5054 12.3477 18.4615 10 18.4615C7.65231 18.4615 5.52793 17.5054 3.995 15.9613ZM13.8462 6.92308C13.8462 9.04725 12.1242 10.7692 10 10.7692C7.87583 10.7692 6.15385 9.04725 6.15385 6.92308C6.15385 4.7989 7.87583 3.07692 10 3.07692C12.1242 3.07692 13.8462 4.7989 13.8462 6.92308Z" fill="#121212"/>
</svg>
