<svg width="17" height="16" viewBox="0 0 17 16" fill="none" xmlns="http://www.w3.org/2000/svg">
<path d="M4.40867 7.41667C5.03583 7.41667 5.60171 7.0699 5.98874 6.57641C6.59009 5.80965 7.34798 5.17153 8.2143 4.71017C8.77597 4.41105 9.26333 3.96666 9.49967 3.37583C9.66504 2.96241 9.75 2.52123 9.75 2.07596V1.58333C9.75 1.26117 10.0112 1 10.3333 1C11.2998 1 12.0833 1.7835 12.0833 2.75C12.0833 3.64571 11.8815 4.49427 11.5207 5.25266C11.3141 5.68692 11.6039 6.25 12.0848 6.25M12.0848 6.25H14.516C15.3145 6.25 16.0292 6.78977 16.1138 7.58378C16.1487 7.91218 16.1667 8.24566 16.1667 8.58333C16.1667 10.7981 15.3952 12.8328 14.1063 14.4332C13.8049 14.8075 13.3388 15 12.8582 15H9.73464C9.35845 15 8.98472 14.9394 8.62784 14.8204L6.20549 14.0129C5.84861 13.894 5.47488 13.8333 5.09869 13.8333H3.84216M12.0848 6.25H10.3333M3.84216 13.8333C3.90657 13.9925 3.97666 14.1487 4.05218 14.3017C4.20551 14.6125 3.99149 15 3.64497 15H2.93891C2.24769 15 1.6066 14.5971 1.40488 13.936C1.14162 13.0732 1 12.1573 1 11.2083C1 10.0009 1.22929 8.84695 1.64671 7.78776C1.88398 7.18569 2.49126 6.83333 3.13839 6.83333H3.9572C4.32425 6.83333 4.53679 7.26571 4.34624 7.57942C3.70346 8.63761 3.33333 9.87975 3.33333 11.2083C3.33333 12.1366 3.51403 13.0227 3.84216 13.8333Z" stroke="#444444" stroke-width="1.5" stroke-linecap="round" stroke-linejoin="round"/>
</svg>
