<svg width="14" height="14" viewBox="0 0 14 14" fill="none" xmlns="http://www.w3.org/2000/svg">
<path d="M8.95321 1.95321C9.80748 1.09893 11.1925 1.09893 12.0468 1.95321C12.9011 2.80748 12.9011 4.19253 12.0468 5.0468L10.9755 6.11809C10.7192 6.37437 10.7192 6.78989 10.9755 7.04617C11.2318 7.30245 11.6473 7.30245 11.9036 7.04617L12.9749 5.97488C14.3417 4.60804 14.3417 2.39196 12.9749 1.02513C11.608 -0.341709 9.39197 -0.341709 8.02513 1.02513L5.40013 3.65013C4.03329 5.01696 4.0333 7.23304 5.40013 8.59988C5.46393 8.66368 5.52968 8.72458 5.59721 8.78256C5.87219 9.01866 6.28651 8.98715 6.52261 8.71216C6.75872 8.43718 6.7272 8.02286 6.45222 7.78676C6.40987 7.7504 6.3685 7.71209 6.32821 7.6718C5.47394 6.81753 5.47394 5.43248 6.32821 4.57821L8.95321 1.95321Z" fill="#444444"/>
<path d="M8.4028 5.21744C8.12782 4.98134 7.7135 5.01285 7.4774 5.28784C7.2413 5.56282 7.27281 5.97714 7.5478 6.21324C7.59014 6.2496 7.63152 6.28791 7.6718 6.3282C8.52608 7.18247 8.52608 8.56752 7.6718 9.42179L5.0468 12.0468C4.19253 12.9011 2.80748 12.9011 1.95321 12.0468C1.09893 11.1925 1.09893 9.80747 1.95321 8.9532L3.0245 7.88191C3.28078 7.62563 3.28078 7.21011 3.0245 6.95383C2.76822 6.69755 2.3527 6.69755 2.09642 6.95383L1.02513 8.02512C-0.341709 9.39196 -0.341709 11.608 1.02513 12.9749C2.39196 14.3417 4.60804 14.3417 5.97488 12.9749L8.59988 10.3499C9.96672 8.98304 9.96672 6.76696 8.59988 5.40012C8.53608 5.33632 8.47033 5.27542 8.4028 5.21744Z" fill="#444444"/>
</svg>
